<?xml version="1.0" standalone="no"?>
<!DOCTYPE svg PUBLIC "-//W3C//DTD SVG 20010904//EN" "http://www.w3.org/TR/2001/REC-SVG-20010904/DTD/svg10.dtd">
<svg version="1.0" xmlns="http://www.w3.org/2000/svg" width="466.000000pt" height="487.000000pt" viewBox="0 0 466.000000 487.000000" preserveAspectRatio="xMidYMid meet">
  <metadata>
    Created by potrace 1.16, written by Peter Selinger 2001-2019
  </metadata>
  <g transform="translate(0.000000,487.000000) scale(0.100000,-0.100000)" fill="#000000" stroke="none">
    <path d="M2323 4572 c-16 -15 -72 -73 -127 -129 l-99 -103 50 -72 c28 -40 70
-102 94 -137 l44 -64 55 115 c30 62 74 156 98 207 l43 93 -48 51 c-63 68 -76
73 -110 39z" />
    <path d="M2448 4273 c-43 -93 -88 -190 -101 -217 l-24 -50 -18 28 -18 28 -15
-27 c-7 -15 -17 -23 -22 -19 -9 11 -118 168 -163 237 l-32 49 -622 -629 c-343
-345 -622 -631 -620 -635 2 -7 189 -236 472 -579 44 -53 98 -118 119 -144 l39
-47 19 38 c10 22 35 75 55 119 20 44 74 158 120 254 45 95 83 175 83 177 0 2
27 60 60 130 33 69 60 128 60 129 0 2 33 72 73 156 41 85 134 284 208 442
l134 289 21 -25 22 -25 11 24 c6 13 14 24 18 24 5 -1 43 -53 86 -118 43 -64
129 -191 192 -282 62 -91 142 -207 177 -258 35 -51 73 -106 84 -123 l22 -30
30 53 c16 29 49 89 72 133 50 93 64 120 149 274 l63 114 -339 338 -338 339
-77 -167z" />
    <path d="M2276 3908 c-24 -56 -90 -198 -283 -608 -25 -52 -87 -185 -138 -295
-51 -110 -120 -258 -154 -328 -33 -71 -61 -130 -61 -131 0 -5 -152 -321 -156
-325 -3 -3 -12 6 -21 18 l-16 24 -15 -29 -15 -28 -34 39 c-30 35 -114 138
-278 340 -27 34 -115 141 -195 238 l-145 178 -232 -233 c-128 -128 -240 -244
-249 -257 -16 -24 -16 -24 417 -457 238 -239 437 -430 441 -426 3 4 65 132
137 285 71 154 132 282 136 285 3 3 13 -5 22 -17 l16 -24 15 29 15 28 29 -34
c16 -19 46 -55 66 -80 40 -49 157 -191 321 -390 57 -69 106 -126 110 -128 4
-1 19 21 33 50 37 72 137 257 278 513 43 77 97 176 120 220 24 44 63 115 87
159 23 43 43 80 43 82 0 1 15 29 33 61 19 32 53 94 77 138 104 195 172 315
178 315 4 0 13 -10 21 -22 l13 -22 14 27 c11 20 12 31 2 51 -14 33 -22 33 -37
0 -6 -15 -13 -25 -15 -23 -12 15 -506 737 -531 776 -11 18 -23 32 -27 33 -4 0
-14 -15 -22 -32z" />
    <path d="M3206 3649 c-20 -37 -44 -82 -54 -101 -64 -113 -212 -387 -218 -401
-4 -11 8 -37 33 -74 22 -32 203 -296 403 -588 200 -291 379 -554 398 -583 19
-28 38 -52 41 -52 16 0 141 140 166 185 15 28 59 109 97 180 39 72 92 168 118
215 89 159 111 203 108 216 -2 7 -240 251 -530 542 l-527 529 -35 -68z" />
    <path d="M2879 3048 c-7 -13 -20 -36 -29 -53 -9 -16 -38 -70 -65 -120 -26 -49
-51 -94 -55 -100 -4 -5 -35 -64 -70 -130 -35 -66 -66 -124 -70 -130 -7 -10
-40 -70 -140 -255 -31 -58 -71 -131 -88 -162 -48 -88 -85 -156 -127 -233 -21
-38 -45 -83 -55 -100 -10 -16 -41 -75 -70 -130 -29 -55 -55 -102 -57 -105 -3
-3 -13 5 -23 18 l-19 23 -17 -25 -16 -26 -47 57 c-25 32 -113 138 -194 238
-81 99 -176 215 -210 257 -34 42 -65 77 -68 77 -3 1 -23 -36 -44 -81 -91 -196
-116 -250 -174 -372 l-61 -128 268 -269 267 -269 41 77 c90 168 204 379 212
393 8 13 12 12 31 -5 19 -16 24 -17 31 -5 6 8 10 19 10 23 0 5 4 7 9 5 11 -4
245 -286 566 -681 l89 -111 533 538 533 538 -33 46 c-19 26 -65 92 -102 147
-38 55 -87 127 -110 160 -84 122 -173 252 -230 335 -261 383 -397 580 -400
580 -3 0 -10 -10 -16 -22z" />
    <path d="M4327 2557 c-24 -42 -215 -393 -224 -412 -3 -5 74 70 171 168 97 97
176 178 176 180 0 1 -22 26 -49 54 l-50 52 -24 -42z" />
    <path d="M1987 1412 c-13 -26 -38 -72 -54 -102 -16 -30 -63 -115 -103 -188
l-73 -134 175 -176 c96 -98 229 -232 295 -300 95 -97 124 -121 139 -116 16 6
242 227 282 276 12 14 -2 35 -100 154 -62 75 -147 178 -188 228 -41 51 -113
139 -160 196 -47 57 -104 127 -128 157 -23 29 -46 53 -52 53 -5 0 -20 -22 -33
-48z" />
  </g>
</svg>